<svg data-v-423bf9ae="" xmlns="http://www.w3.org/2000/svg" viewBox="0 0 601 90" class="iconLeft"><!----><!----><!----><g data-v-423bf9ae="" id="303953a7-48d0-4aec-98d0-4b59f7575a81" fill="white" transform="matrix(5.649717575005543,0,0,5.649717575005543,59.026306947209264,13.870058092387993)"><path d="M2.37 10.64L2.37 5.59L6.76 10.64L8.20 10.64C4.56 6.37 4.12 5.85 3.53 5.21C4.21 4.54 4.65 4.10 7.80 0.76L6.59 0.76L2.37 5.40L2.37 0.76L1.25 0.76L1.25 10.64ZM12.99 10.64L14.01 10.64C13.85 10.11 13.83 9.56 13.83 9.09L13.83 5.80C13.83 4.79 13.64 4.33 13.27 3.95C12.84 3.51 12.14 3.40 11.44 3.40C10.75 3.40 9.84 3.56 9.10 3.91L9.10 4.72C9.97 4.24 10.72 4.14 11.31 4.14C11.83 4.14 12.24 4.28 12.47 4.59C12.71 4.90 12.80 5.39 12.80 5.91L12.80 6.54C12.54 6.52 12.18 6.51 11.91 6.51C9.46 6.51 8.43 7.28 8.43 8.65C8.43 9.90 9.25 10.81 10.68 10.81C11.80 10.81 12.46 10.32 12.82 9.66C12.84 9.93 12.92 10.40 12.99 10.64ZM12.80 7.11L12.80 8.11C12.80 8.57 12.73 9.03 12.46 9.34C12.10 9.79 11.55 10.09 10.89 10.09C10.00 10.09 9.49 9.52 9.49 8.62C9.49 7.78 10.09 7.10 12.11 7.10C12.33 7.10 12.60 7.10 12.80 7.11ZM21.32 3.58L20.29 3.58C18.98 7.31 18.65 8.23 18.23 9.62C17.75 8.19 17.46 7.32 16.10 3.58L14.94 3.58L17.60 10.64L18.59 10.64ZM23.63 10.64L23.63 3.58L22.57 3.58L22.57 10.64ZM23.74 1.40C23.74 0.87 23.55 0.70 23.11 0.70C22.67 0.70 22.44 0.88 22.44 1.40C22.44 1.95 22.65 2.10 23.09 2.10C23.53 2.10 23.74 1.92 23.74 1.40ZM29.08 10.58L29.08 9.88C28.84 9.97 28.46 10.01 28.18 10.01C27.80 10.01 27.50 9.87 27.38 9.62C27.30 9.42 27.24 9.11 27.24 8.51L27.24 4.21L28.83 4.21L28.83 3.58L27.24 3.58L27.24 1.76L26.29 1.76C26.22 2.79 26.19 3.58 26.19 3.58L25.12 3.58L25.12 4.21L26.19 4.21L26.19 8.53C26.19 9.21 26.22 9.65 26.43 10.02C26.68 10.50 27.17 10.74 27.99 10.74C28.34 10.74 28.78 10.67 29.08 10.58ZM34.83 10.64L35.87 10.64L35.87 6.48C35.87 5.64 35.87 5.25 35.78 4.87C35.56 3.81 34.86 3.40 33.84 3.40C33.17 3.40 32.14 3.61 31.43 4.41L31.43 0.20L30.37 0.20L30.37 10.64L31.42 10.64L31.42 6.24C31.42 5.46 31.44 5.17 31.72 4.82C32.13 4.33 32.86 4.13 33.43 4.13C34.15 4.13 34.52 4.42 34.69 4.98C34.79 5.33 34.83 5.85 34.83 6.71ZM45.18 10.64L44.53 7.97C44.17 6.43 43.74 5.94 42.81 5.68C44.10 5.40 44.79 4.62 44.79 3.30C44.79 2.13 44.37 1.41 43.50 1.05C42.95 0.83 42.21 0.76 41.23 0.76L38.26 0.76L38.26 10.64L39.38 10.64L39.38 6.03L40.95 6.03C41.58 6.03 42.03 6.08 42.48 6.34C42.91 6.61 43.23 7.25 43.44 8.12L44.03 10.64ZM39.38 5.33L39.38 1.44L41.27 1.44C42.01 1.44 42.48 1.50 42.85 1.67C43.44 1.92 43.61 2.56 43.61 3.33C43.61 4.13 43.36 4.70 42.87 5.01C42.53 5.24 41.94 5.33 41.13 5.33ZM50.90 10.64L51.93 10.64C51.76 10.11 51.74 9.56 51.74 9.09L51.74 5.80C51.74 4.79 51.55 4.33 51.18 3.95C50.75 3.51 50.05 3.40 49.35 3.40C48.66 3.40 47.75 3.56 47.01 3.91L47.01 4.72C47.88 4.24 48.64 4.14 49.22 4.14C49.74 4.14 50.15 4.28 50.39 4.59C50.62 4.90 50.71 5.39 50.71 5.91L50.71 6.54C50.46 6.52 50.09 6.51 49.83 6.51C47.38 6.51 46.34 7.28 46.34 8.65C46.34 9.90 47.17 10.81 48.59 10.81C49.71 10.81 50.37 10.32 50.74 9.66C50.75 9.93 50.83 10.40 50.90 10.64ZM50.71 7.11L50.71 8.11C50.71 8.57 50.64 9.03 50.37 9.34C50.01 9.79 49.46 10.09 48.80 10.09C47.91 10.09 47.40 9.52 47.40 8.62C47.40 7.78 48.01 7.10 50.02 7.10C50.25 7.10 50.51 7.10 50.71 7.11ZM53.34 9.53L53.34 10.44C53.96 10.68 54.64 10.82 55.24 10.82C56.94 10.82 57.89 10.07 57.89 8.76C57.89 7.78 57.43 7.29 56.21 6.75L55.47 6.43C54.84 6.15 54.53 5.81 54.53 5.29C54.53 4.49 55.17 4.09 55.90 4.09C56.55 4.09 57.02 4.23 57.58 4.51L57.58 3.64C57.11 3.49 56.56 3.40 55.93 3.40C54.42 3.40 53.52 4.16 53.52 5.38C53.52 6.24 53.97 6.89 54.98 7.32L55.58 7.57C56.38 7.91 56.81 8.23 56.81 8.88C56.81 9.63 56.39 10.11 55.24 10.11C54.61 10.11 53.96 9.87 53.34 9.53ZM63.90 10.64L64.93 10.64L64.93 6.48C64.93 5.64 64.93 5.25 64.85 4.87C64.62 3.81 63.92 3.40 62.90 3.40C62.23 3.40 61.21 3.61 60.49 4.41L60.49 0.20L59.43 0.20L59.43 10.64L60.48 10.64L60.48 6.24C60.48 5.46 60.51 5.17 60.79 4.82C61.19 4.33 61.92 4.13 62.50 4.13C63.21 4.13 63.59 4.42 63.76 4.98C63.85 5.33 63.90 5.85 63.90 6.71ZM68.33 10.64L68.33 3.58L67.27 3.58L67.27 10.64ZM68.45 1.40C68.45 0.87 68.25 0.70 67.82 0.70C67.37 0.70 67.14 0.88 67.14 1.40C67.14 1.95 67.35 2.10 67.79 2.10C68.24 2.10 68.45 1.92 68.45 1.40ZM75.19 10.64L76.23 10.64L76.23 6.48C76.23 5.64 76.20 5.25 76.15 4.87C75.99 3.78 75.17 3.40 74.19 3.40C73.54 3.40 72.38 3.68 71.74 4.61C71.74 4.48 71.68 3.82 71.62 3.58L70.59 3.58C70.69 4.24 70.73 5.43 70.73 6.26L70.73 10.64L71.78 10.64L71.78 6.40C71.78 5.59 71.83 5.32 72.09 4.94C72.46 4.40 73.16 4.12 73.79 4.12C74.51 4.12 74.91 4.40 75.07 4.94C75.17 5.31 75.19 5.82 75.19 6.68ZM81.65 10.58L81.65 9.88C81.41 9.97 81.03 10.01 80.75 10.01C80.37 10.01 80.07 9.87 79.95 9.62C79.87 9.42 79.81 9.11 79.81 8.51L79.81 4.21L81.40 4.21L81.40 3.58L79.81 3.58L79.81 1.76L78.86 1.76C78.79 2.79 78.76 3.58 78.76 3.58L77.69 3.58L77.69 4.21L78.76 4.21L78.76 8.53C78.76 9.21 78.79 9.65 79.00 10.02C79.25 10.50 79.74 10.74 80.56 10.74C80.91 10.74 81.35 10.67 81.65 10.58ZM87.40 10.64L88.44 10.64L88.44 6.48C88.44 5.64 88.44 5.25 88.35 4.87C88.13 3.81 87.43 3.40 86.41 3.40C85.74 3.40 84.71 3.61 84 4.41L84 0.20L82.94 0.20L82.94 10.64L83.99 10.64L83.99 6.24C83.99 5.46 84.01 5.17 84.29 4.82C84.70 4.33 85.43 4.13 86.00 4.13C86.72 4.13 87.09 4.42 87.26 4.98C87.36 5.33 87.40 5.85 87.40 6.71ZM94.81 10.64L95.83 10.64C95.66 10.11 95.65 9.56 95.65 9.09L95.65 5.80C95.65 4.79 95.45 4.33 95.09 3.95C94.65 3.51 93.95 3.40 93.25 3.40C92.57 3.40 91.66 3.56 90.92 3.91L90.92 4.72C91.78 4.24 92.54 4.14 93.13 4.14C93.65 4.14 94.05 4.28 94.29 4.59C94.53 4.90 94.61 5.39 94.61 5.91L94.61 6.54C94.36 6.52 94.00 6.51 93.73 6.51C91.28 6.51 90.24 7.28 90.24 8.65C90.24 9.90 91.07 10.81 92.50 10.81C93.62 10.81 94.28 10.32 94.64 9.66C94.65 9.93 94.74 10.40 94.81 10.64ZM94.61 7.11L94.61 8.11C94.61 8.57 94.54 9.03 94.28 9.34C93.91 9.79 93.37 10.09 92.71 10.09C91.81 10.09 91.31 9.52 91.31 8.62C91.31 7.78 91.91 7.10 93.93 7.10C94.15 7.10 94.42 7.10 94.61 7.11Z"></path></g><!----><g data-v-423bf9ae="" id="6909be7c-70da-455b-ab2e-cf947fa59da3" transform="matrix(2.8125,0,0,2.8125,-21.194407999515533,0)" stroke="none" fill="white"><path d="M18.396 26.495L7.807 15.905 18.432 5.28l.707.707-9.918 9.918 9.882 9.883z"></path><path d="M23.194 1v4.194H19V1h4.194m1-1H18v6.194h6.194V0zM23.194 26.806V31H19v-4.194h4.194m1-1H18V32h6.194v-6.194z"></path></g><!----></svg>